<svg width="24" height="23" viewBox="0 0 24 23" fill="none" xmlns="http://www.w3.org/2000/svg">
<g filter="url(#filter0_dd_1_3144)">
<rect x="4.5" y="0.5" width="15" height="14" rx="1.5" fill="#2196F3"/>
<rect x="4.5" y="0.5" width="15" height="14" rx="1.5" stroke="white"/>
<rect x="4.5" y="0.5" width="15" height="14" rx="1.5" stroke="black" stroke-opacity="0.2"/>
<rect x="4.5" y="0.5" width="15" height="14" rx="1.5" stroke="black" stroke-opacity="0.2"/>
<rect x="4.5" y="0.5" width="15" height="14" rx="1.5" stroke="black" stroke-opacity="0.2"/>
<path d="M7.95703 7.75166L7.88825 7.68604L7.81923 7.75141L6.93123 8.59258L6.85486 8.66492L6.93097 8.73753L10.4267 12.0724L10.4957 12.1382L10.5648 12.0724L18.069 4.91352L18.1449 4.84116L18.069 4.76881L17.1873 3.92764L17.1183 3.86183L17.0493 3.92761L10.4958 10.1735L7.95703 7.75166Z" fill="white"/>
<path d="M7.95703 7.75166L7.88825 7.68604L7.81923 7.75141L6.93123 8.59258L6.85486 8.66492L6.93097 8.73753L10.4267 12.0724L10.4957 12.1382L10.5648 12.0724L18.069 4.91352L18.1449 4.84116L18.069 4.76881L17.1873 3.92764L17.1183 3.86183L17.0493 3.92761L10.4958 10.1735L7.95703 7.75166Z" stroke="white" stroke-width="0.2"/>
<path d="M7.95703 7.75166L7.88825 7.68604L7.81923 7.75141L6.93123 8.59258L6.85486 8.66492L6.93097 8.73753L10.4267 12.0724L10.4957 12.1382L10.5648 12.0724L18.069 4.91352L18.1449 4.84116L18.069 4.76881L17.1873 3.92764L17.1183 3.86183L17.0493 3.92761L10.4958 10.1735L7.95703 7.75166Z" stroke="black" stroke-opacity="0.2" stroke-width="0.2"/>
<path d="M7.95703 7.75166L7.88825 7.68604L7.81923 7.75141L6.93123 8.59258L6.85486 8.66492L6.93097 8.73753L10.4267 12.0724L10.4957 12.1382L10.5648 12.0724L18.069 4.91352L18.1449 4.84116L18.069 4.76881L17.1873 3.92764L17.1183 3.86183L17.0493 3.92761L10.4958 10.1735L7.95703 7.75166Z" stroke="black" stroke-opacity="0.2" stroke-width="0.2"/>
<path d="M7.95703 7.75166L7.88825 7.68604L7.81923 7.75141L6.93123 8.59258L6.85486 8.66492L6.93097 8.73753L10.4267 12.0724L10.4957 12.1382L10.5648 12.0724L18.069 4.91352L18.1449 4.84116L18.069 4.76881L17.1873 3.92764L17.1183 3.86183L17.0493 3.92761L10.4958 10.1735L7.95703 7.75166Z" stroke="black" stroke-opacity="0.2" stroke-width="0.2"/>
</g>
<defs>
<filter id="filter0_dd_1_3144" x="0" y="0" width="24" height="23" filterUnits="userSpaceOnUse" color-interpolation-filters="sRGB">
<feFlood flood-opacity="0" result="BackgroundImageFix"/>
<feColorMatrix in="SourceAlpha" type="matrix" values="0 0 0 0 0 0 0 0 0 0 0 0 0 0 0 0 0 0 127 0" result="hardAlpha"/>
<feOffset dy="4"/>
<feGaussianBlur stdDeviation="2"/>
<feComposite in2="hardAlpha" operator="out"/>
<feColorMatrix type="matrix" values="0 0 0 0 0 0 0 0 0 0 0 0 0 0 0 0 0 0 0.25 0"/>
<feBlend mode="normal" in2="BackgroundImageFix" result="effect1_dropShadow_1_3144"/>
<feColorMatrix in="SourceAlpha" type="matrix" values="0 0 0 0 0 0 0 0 0 0 0 0 0 0 0 0 0 0 127 0" result="hardAlpha"/>
<feOffset dy="4"/>
<feGaussianBlur stdDeviation="2"/>
<feComposite in2="hardAlpha" operator="out"/>
<feColorMatrix type="matrix" values="0 0 0 0 0 0 0 0 0 0 0 0 0 0 0 0 0 0 0.25 0"/>
<feBlend mode="normal" in2="effect1_dropShadow_1_3144" result="effect2_dropShadow_1_3144"/>
<feBlend mode="normal" in="SourceGraphic" in2="effect2_dropShadow_1_3144" result="shape"/>
</filter>
</defs>
</svg>
